<svg width="50" height="40" viewBox="0 0 50 40" fill="none" xmlns="http://www.w3.org/2000/svg">
<path d="M24.9999 15.0984V10.8334C24.9993 10.504 24.8767 10.1821 24.6478 9.90838C24.4189 9.63463 24.0938 9.42121 23.7135 9.29502C23.3332 9.16883 22.9147 9.13552 22.5108 9.19929C22.1068 9.26306 21.7355 9.42105 21.4437 9.65336L8.33325 20L21.4437 30.345C21.6367 30.5003 21.8662 30.6236 22.119 30.7077C22.3718 30.7918 22.6428 30.8351 22.9166 30.8351C23.1904 30.8351 23.4614 30.7918 23.7142 30.7077C23.967 30.6236 24.1965 30.5003 24.3895 30.345C24.5831 30.1903 24.7366 30.0067 24.8413 29.8045C24.9461 29.6023 25 29.3856 24.9999 29.1667V25.0184C30.7291 25.1317 36.9895 25.9617 41.6666 31.6667V30C41.6666 22.2784 34.3749 15.9284 24.9999 15.0984Z" fill="black"/>
</svg>
