<svg width="36" height="37" viewBox="0 0 36 37" fill="none" xmlns="http://www.w3.org/2000/svg">
<g id="clarity:remove-line" clip-path="url(#clip0_45_536)">
<path id="Vector" d="M19.6099 18.5L24.4699 13.64C24.6338 13.4487 24.7194 13.2026 24.7096 12.9509C24.6999 12.6993 24.5956 12.4605 24.4175 12.2824C24.2394 12.1043 24.0007 12 23.749 11.9903C23.4973 11.9806 23.2512 12.0662 23.0599 12.23L18.1999 17.04L13.3099 12.15C13.1186 11.9862 12.8726 11.9006 12.6209 11.9103C12.3692 11.92 12.1305 12.0243 11.9524 12.2024C11.7743 12.3805 11.6699 12.6193 11.6602 12.8709C11.6505 13.1226 11.7361 13.3687 11.8999 13.56L16.7799 18.5L11.9999 23.22C11.8953 23.3096 11.8102 23.42 11.7502 23.544C11.6902 23.6681 11.6565 23.8032 11.6511 23.9409C11.6458 24.0787 11.669 24.216 11.7193 24.3443C11.7696 24.4727 11.8458 24.5892 11.9433 24.6867C12.0407 24.7841 12.1573 24.8604 12.2856 24.9106C12.4139 24.9609 12.5513 24.9841 12.689 24.9788C12.8267 24.9735 12.9618 24.9398 13.0859 24.8797C13.21 24.8197 13.3203 24.7347 13.4099 24.63L18.1799 19.86L22.9199 24.6C23.1112 24.7638 23.3573 24.8494 23.609 24.8397C23.8607 24.83 24.0994 24.7257 24.2775 24.5476C24.4556 24.3695 24.5599 24.1307 24.5696 23.8791C24.5794 23.6274 24.4938 23.3813 24.3299 23.19L19.6099 18.5Z" fill="black"/>
<path id="Vector_2" d="M18 34.5C14.8355 34.5 11.7421 33.5616 9.11088 31.8035C6.4797 30.0454 4.42894 27.5466 3.21793 24.6229C2.00693 21.6993 1.69008 18.4823 2.30744 15.3786C2.92481 12.2749 4.44866 9.42394 6.6863 7.1863C8.92394 4.94866 11.7749 3.42481 14.8786 2.80744C17.9823 2.19008 21.1993 2.50693 24.1229 3.71793C27.0466 4.92894 29.5454 6.9797 31.3035 9.61088C33.0616 12.2421 34 15.3355 34 18.5C34 22.7435 32.3143 26.8131 29.3137 29.8137C26.3131 32.8143 22.2435 34.5 18 34.5ZM18 4.50001C15.2311 4.50001 12.5243 5.32109 10.222 6.85943C7.91974 8.39777 6.12532 10.5843 5.06569 13.1424C4.00607 15.7006 3.72882 18.5155 4.26901 21.2313C4.80921 23.947 6.14258 26.4416 8.10051 28.3995C10.0584 30.3574 12.553 31.6908 15.2687 32.231C17.9845 32.7712 20.7994 32.4939 23.3576 31.4343C25.9157 30.3747 28.1022 28.5803 29.6406 26.278C31.1789 23.9757 32 21.2689 32 18.5C32 14.787 30.525 11.226 27.8995 8.60051C25.274 5.975 21.713 4.50001 18 4.50001Z" fill="black"/>
</g>
<defs>
<clipPath id="clip0_45_536">
<rect width="36" height="36" fill="white" transform="translate(0 0.5)"/>
</clipPath>
</defs>
</svg>
