<svg width="51" height="50" viewBox="0 0 51 50" fill="none" xmlns="http://www.w3.org/2000/svg">
<g id="devicon:twitter" clip-path="url(#clip0_8_277)">
<path id="Vector" d="M45.3813 14.8C45.4117 15.241 45.4117 15.6816 45.4117 16.1266C45.4117 29.6812 35.0926 45.3141 16.2242 45.3141V45.3062C10.65 45.3141 5.19138 43.7174 0.5 40.707C1.31055 40.8047 2.125 40.8535 2.94141 40.8555C7.56137 40.8592 12.0485 39.3096 15.6816 36.4559C13.541 36.4154 11.4665 35.707 9.74821 34.4298C8.02992 33.1525 6.75372 31.3702 6.09805 29.332C7.63594 29.6289 9.22031 29.5676 10.7297 29.1551C5.94375 28.1883 2.50078 23.9836 2.50078 19.1004V18.9703C3.92746 19.7651 5.52424 20.2055 7.15664 20.2543C2.64844 17.2418 1.25977 11.2453 3.98164 6.55742C6.55699 9.72642 9.77015 12.3183 13.4124 14.1646C17.0547 16.0109 21.0446 17.0704 25.123 17.2742C24.7165 15.5237 24.7767 13.6972 25.2975 11.9773C25.8184 10.2573 26.7817 8.70429 28.091 7.47343C32.2227 3.58945 38.7207 3.78867 42.6043 7.91835C44.9016 7.46473 47.1047 6.62244 49.1187 5.42773C48.3529 7.803 46.7504 9.81928 44.6094 11.1016C46.6428 10.8618 48.6286 10.3173 50.5 9.48632C49.1234 11.5479 47.39 13.3473 45.3813 14.8Z" fill="#1D9BF0"/>
</g>
<defs>
<clipPath id="clip0_8_277">
<rect width="50" height="50" fill="white" transform="translate(0.5)"/>
</clipPath>
</defs>
</svg>
