<svg width="51" height="50" viewBox="0 0 51 50" fill="none" xmlns="http://www.w3.org/2000/svg">
<g id="logos:facebook" clip-path="url(#clip0_8_269)">
<path id="Vector" d="M50.5 25C50.5 11.193 39.307 0 25.5 0C11.693 0 0.5 11.1928 0.5 25C0.5 37.4781 9.64219 47.8209 21.5938 49.6963V32.2266H15.2461V25H21.5938V19.4922C21.5938 13.2266 25.3262 9.76562 31.0365 9.76562C33.7719 9.76562 36.6328 10.2539 36.6328 10.2539V16.4062H33.4805C30.3746 16.4062 29.4062 18.3334 29.4062 20.3105V25H36.3398L35.2314 32.2266H29.4062V49.6963C41.3578 47.8209 50.5 37.4783 50.5 25Z" fill="#1877F2"/>
<path id="Vector_2" d="M35.2314 32.2266L36.3398 25H29.4062V20.3105C29.4062 18.3332 30.3748 16.4062 33.4805 16.4062H36.6328V10.2539C36.6328 10.2539 33.7719 9.76562 31.0365 9.76562C25.3262 9.76562 21.5938 13.2266 21.5938 19.4922V25H15.2461V32.2266H21.5938V49.6963C22.886 49.8988 24.192 50.0003 25.5 50C26.808 50.0004 28.114 49.8988 29.4062 49.6963V32.2266H35.2314Z" fill="white"/>
</g>
<defs>
<clipPath id="clip0_8_269">
<rect width="50" height="50" fill="white" transform="translate(0.5)"/>
</clipPath>
</defs>
</svg>
