<svg width="61" height="60" viewBox="0 0 61 60" fill="none" xmlns="http://www.w3.org/2000/svg">
<g id="mdi-light:cart">
<path id="Vector" d="M40.5 45C41.8261 45 43.0979 45.5268 44.0355 46.4645C44.9732 47.4021 45.5 48.6739 45.5 50C45.5 51.3261 44.9732 52.5979 44.0355 53.5355C43.0979 54.4732 41.8261 55 40.5 55C39.1739 55 37.9021 54.4732 36.9645 53.5355C36.0268 52.5979 35.5 51.3261 35.5 50C35.5 48.6739 36.0268 47.4021 36.9645 46.4645C37.9021 45.5268 39.1739 45 40.5 45ZM40.5 47.5C39.837 47.5 39.2011 47.7634 38.7322 48.2322C38.2634 48.7011 38 49.337 38 50C38 50.663 38.2634 51.2989 38.7322 51.7678C39.2011 52.2366 39.837 52.5 40.5 52.5C41.163 52.5 41.7989 52.2366 42.2678 51.7678C42.7366 51.2989 43 50.663 43 50C43 49.337 42.7366 48.7011 42.2678 48.2322C41.7989 47.7634 41.163 47.5 40.5 47.5ZM18 45C19.3261 45 20.5979 45.5268 21.5355 46.4645C22.4732 47.4021 23 48.6739 23 50C23 51.3261 22.4732 52.5979 21.5355 53.5355C20.5979 54.4732 19.3261 55 18 55C16.6739 55 15.4021 54.4732 14.4645 53.5355C13.5268 52.5979 13 51.3261 13 50C13 48.6739 13.5268 47.4021 14.4645 46.4645C15.4021 45.5268 16.6739 45 18 45ZM18 47.5C17.337 47.5 16.7011 47.7634 16.2322 48.2322C15.7634 48.7011 15.5 49.337 15.5 50C15.5 50.663 15.7634 51.2989 16.2322 51.7678C16.7011 52.2366 17.337 52.5 18 52.5C18.663 52.5 19.2989 52.2366 19.7678 51.7678C20.2366 51.2989 20.5 50.663 20.5 50C20.5 49.337 20.2366 48.7011 19.7678 48.2322C19.2989 47.7634 18.663 47.5 18 47.5ZM45.5 15H11.175L17.55 30H38C38.825 30 39.55 29.6 40 29L47.5 19C47.825 18.575 48 18.05 48 17.5C48 16.837 47.7366 16.2011 47.2678 15.7322C46.7989 15.2634 46.163 15 45.5 15ZM38 32.5H17.675L15.75 36.4L15.5 37.5C15.5 38.163 15.7634 38.7989 16.2322 39.2678C16.7011 39.7366 17.337 40 18 40H45.5V42.5H18C16.6739 42.5 15.4021 41.9732 14.4645 41.0355C13.5268 40.0979 13 38.8261 13 37.5C12.9993 36.6517 13.2143 35.8172 13.625 35.075L15.425 31.4L6.35 10H3V7.5H8L10.125 12.5H45.5C46.8261 12.5 48.0979 13.0268 49.0355 13.9645C49.9732 14.9021 50.5 16.1739 50.5 17.5C50.5 18.75 50.075 19.8 49.375 20.65L42.1 30.375C41.2 31.65 39.7 32.5 38 32.5Z" fill="#699BF7"/>
</g>
</svg>
