<svg width="51" height="50" viewBox="0 0 51 50" fill="none" xmlns="http://www.w3.org/2000/svg">
<g id="skill-icons:instagram" clip-path="url(#clip0_8_272)">
<g id="Group">
<path id="Vector" d="M38.7812 0H12.2188C5.74666 0 0.5 5.24666 0.5 11.7188V38.2812C0.5 44.7533 5.74666 50 12.2188 50H38.7812C45.2533 50 50.5 44.7533 50.5 38.2812V11.7188C50.5 5.24666 45.2533 0 38.7812 0Z" fill="url(#paint0_radial_8_272)"/>
<path id="Vector_2" d="M38.7812 0H12.2188C5.74666 0 0.5 5.24666 0.5 11.7188V38.2812C0.5 44.7533 5.74666 50 12.2188 50H38.7812C45.2533 50 50.5 44.7533 50.5 38.2812V11.7188C50.5 5.24666 45.2533 0 38.7812 0Z" fill="url(#paint1_radial_8_272)"/>
<path id="Vector_3" d="M25.5018 5.46875C20.1975 5.46875 19.5316 5.49199 17.4484 5.58672C15.3691 5.68203 13.9498 6.01113 12.708 6.49414C11.4232 6.99297 10.3336 7.66035 9.24805 8.74629C8.16152 9.83203 7.49414 10.9217 6.99375 12.2059C6.50938 13.448 6.17988 14.868 6.08633 16.9463C5.99316 19.0297 5.96875 19.6957 5.96875 25.0002C5.96875 30.3047 5.99219 30.9684 6.08672 33.0516C6.18242 35.1309 6.51152 36.5502 6.99414 37.792C7.49336 39.0768 8.16074 40.1664 9.24668 41.252C10.332 42.3385 11.4217 43.0074 12.7055 43.5062C13.9482 43.9893 15.3678 44.3184 17.4467 44.4137C19.5301 44.5084 20.1953 44.5316 25.4994 44.5316C30.8043 44.5316 31.468 44.5084 33.5512 44.4137C35.6305 44.3184 37.0514 43.9893 38.2941 43.5062C39.5783 43.0074 40.6664 42.3385 41.7516 41.252C42.8381 40.1664 43.5053 39.0768 44.0059 37.7926C44.4859 36.5502 44.8156 35.1305 44.9133 33.052C45.0068 30.9688 45.0312 30.3047 45.0312 25.0002C45.0312 19.6957 45.0068 19.0301 44.9133 16.9467C44.8156 14.8674 44.4859 13.4482 44.0059 12.2064C43.5053 10.9217 42.8381 9.83203 41.7516 8.74629C40.6652 7.65996 39.5787 6.99258 38.293 6.49434C37.0479 6.01113 35.6277 5.68184 33.5484 5.58672C31.465 5.49199 30.8018 5.46875 25.4957 5.46875H25.5018ZM23.7496 8.98848C24.2697 8.9877 24.85 8.98848 25.5018 8.98848C30.7168 8.98848 31.3348 9.00723 33.3941 9.10078C35.2984 9.18789 36.332 9.50605 37.0205 9.77344C37.932 10.1273 38.5818 10.5506 39.265 11.2344C39.9486 11.918 40.3717 12.5689 40.7266 13.4805C40.9939 14.168 41.3125 15.2016 41.3992 17.1059C41.4928 19.1648 41.5131 19.7832 41.5131 24.9957C41.5131 30.2082 41.4928 30.8268 41.3992 32.8855C41.3121 34.7898 40.9939 35.8234 40.7266 36.5111C40.3727 37.4227 39.9486 38.0717 39.265 38.7549C38.5814 39.4385 37.9324 39.8615 37.0205 40.2156C36.3328 40.4842 35.2984 40.8016 33.3941 40.8887C31.3352 40.9822 30.7168 41.0025 25.5018 41.0025C20.2865 41.0025 19.6684 40.9822 17.6096 40.8887C15.7053 40.8008 14.6717 40.4826 13.9826 40.2152C13.0713 39.8611 12.4201 39.4381 11.7365 38.7545C11.0529 38.0709 10.6299 37.4215 10.275 36.5096C10.0076 35.8219 9.68906 34.7883 9.60234 32.884C9.50879 30.825 9.49004 30.2066 9.49004 24.9908C9.49004 19.7752 9.50879 19.16 9.60234 17.101C9.68945 15.1967 10.0076 14.1631 10.275 13.4746C10.6291 12.5631 11.0529 11.9121 11.7367 11.2285C12.4203 10.5449 13.0713 10.1217 13.9828 9.76699C14.6713 9.49844 15.7053 9.18105 17.6096 9.09355C19.4113 9.01211 20.1096 8.98769 23.7496 8.98359V8.98848ZM35.9275 12.2314C34.6336 12.2314 33.5838 13.2803 33.5838 14.5744C33.5838 15.8684 34.6336 16.9182 35.9275 16.9182C37.2215 16.9182 38.2713 15.8684 38.2713 14.5744C38.2713 13.2805 37.2215 12.2307 35.9275 12.2307V12.2314ZM25.5018 14.9699C19.9627 14.9699 15.4717 19.4609 15.4717 25.0002C15.4717 30.5395 19.9627 35.0283 25.5018 35.0283C31.041 35.0283 35.5305 30.5395 35.5305 25.0002C35.5305 19.4611 31.0406 14.9699 25.5014 14.9699H25.5018ZM25.5018 18.4896C29.0973 18.4896 32.0123 21.4043 32.0123 25.0002C32.0123 28.5957 29.0973 31.5107 25.5018 31.5107C21.9061 31.5107 18.9914 28.5957 18.9914 25.0002C18.9914 21.4043 21.9061 18.4896 25.5018 18.4896Z" fill="white"/>
</g>
</g>
<defs>
<radialGradient id="paint0_radial_8_272" cx="0" cy="0" r="1" gradientUnits="userSpaceOnUse" gradientTransform="translate(13.7812 53.851) rotate(-90) scale(49.5537 46.0889)">
<stop stop-color="#FFDD55"/>
<stop offset="0.1" stop-color="#FFDD55"/>
<stop offset="0.5" stop-color="#FF543E"/>
<stop offset="1" stop-color="#C837AB"/>
</radialGradient>
<radialGradient id="paint1_radial_8_272" cx="0" cy="0" r="1" gradientUnits="userSpaceOnUse" gradientTransform="translate(-7.8752 3.60176) rotate(78.681) scale(22.1508 91.3062)">
<stop stop-color="#3771C8"/>
<stop offset="0.128" stop-color="#3771C8"/>
<stop offset="1" stop-color="#6600FF" stop-opacity="0"/>
</radialGradient>
<clipPath id="clip0_8_272">
<rect width="50" height="50" fill="white" transform="translate(0.5)"/>
</clipPath>
</defs>
</svg>
